<svg width="484" height="66" viewBox="0 0 484 66" fill="none" xmlns="http://www.w3.org/2000/svg">
<path d="M29.1338 58.2599C45.224 58.2599 58.2675 45.218 58.2675 29.1299C58.2675 13.0419 45.224 0 29.1338 0C13.0437 0 0 13.0419 0 29.1299C0 45.218 13.0437 58.2599 29.1338 58.2599Z" fill="#FC8001"/>
<path d="M29.1879 1.62085C15.7456 1.62085 4.84314 12.5218 4.84314 25.9622C4.84314 27.2725 4.95121 28.5625 5.1471 29.8121C8.29488 21.5924 16.8939 15.6826 27.0128 15.6826C35.4632 15.6826 42.853 19.8026 46.8924 25.9487C46.9194 25.9487 46.9397 25.9487 46.9667 25.9487C49.5808 25.9487 51.783 26.7795 53.4176 28.1979C53.4853 27.4616 53.5257 26.7119 53.5257 25.9555C53.5257 12.515 42.6302 1.62085 29.1879 1.62085Z" fill="#FDCC01"/>
<path d="M53.4248 28.198C51.7833 26.773 49.588 25.949 46.9738 25.949C46.9469 25.949 46.9265 25.949 46.8996 25.949C39.7394 25.9895 32.2008 32.21 30.0459 39.8825C28.8975 43.9687 29.5055 47.6427 31.4036 50.1958C30.6743 50.2635 29.9378 50.3039 29.1882 50.3039C17.0563 50.3039 6.99825 41.4291 5.15415 29.8123C4.3233 31.9804 3.87073 34.3036 3.87073 36.7283C3.87073 42.6853 6.59295 48.0547 10.9701 51.8843C13.6721 54.039 16.7591 55.7275 20.1163 56.8214C22.9601 57.7468 25.993 58.2533 29.1409 58.2533C37.8749 58.2533 45.7039 54.4036 51.0402 48.3181C52.8775 46.2177 54.4244 43.8607 55.6066 41.2941C55.7821 40.828 55.9374 40.3621 56.0659 39.8825C57.437 34.9925 56.2889 30.6835 53.4248 28.198Z" fill="#FD0024"/>
<path d="M210.937 26.827V50.8173C210.937 51.0604 210.742 51.2562 210.5 51.2562H204.91C204.667 51.2562 204.472 51.0604 204.472 50.8173V28.9276C204.472 22.0047 200.687 17.9253 194.175 17.9253C187.979 17.9253 183.13 22.2411 183.13 29.0829V50.8173C183.13 51.0604 182.934 51.2562 182.692 51.2562H177.102C176.86 51.2562 176.664 51.0604 176.664 50.8173V28.9276C176.664 22.0047 172.88 17.9253 166.367 17.9253C160.333 17.9253 155.282 22.0789 155.282 29.0829V50.8173C155.282 51.0604 155.087 51.2562 154.844 51.2562H149.295C149.052 51.2562 148.857 51.0604 148.857 50.8173V13.0219C148.857 12.7787 149.052 12.5829 149.295 12.5829H154.804C155.046 12.5829 155.241 12.7787 155.241 13.0219V16.2435C155.241 16.6487 155.74 16.8379 156.003 16.5339C159.08 13.0286 163.518 11.7859 167.512 11.7859C173.56 11.7859 178.395 14.3659 180.988 18.6817C181.163 18.9721 181.567 18.9721 181.743 18.6817C184.901 13.5014 190.444 11.7859 195.333 11.7859C204.587 11.7926 210.937 17.8037 210.937 26.827Z" fill="white"/>
<path d="M256.262 31.3792C256.262 42.7326 248.018 50.9658 237.519 50.9658C232.084 50.9658 227.949 49.0342 225.053 45.988C224.784 45.7045 224.305 45.9069 224.305 46.2988V65.5612C224.305 65.8043 224.11 66.0001 223.868 66.0001H218.318C218.076 66.0001 217.881 65.8043 217.881 65.5612V13.0287C217.881 12.7856 218.076 12.5897 218.318 12.5897H223.868C224.11 12.5897 224.305 12.7856 224.305 13.0287V16.4597C224.305 16.8514 224.784 17.0541 225.053 16.7704C227.956 13.7311 232.091 11.7927 237.519 11.7927C248.012 11.7927 256.262 20.0258 256.262 31.3792ZM223.908 31.3792C223.908 39.0921 229.195 44.9142 236.771 44.9142C244.543 44.9142 249.635 38.8625 249.635 31.3792C249.635 23.9026 244.429 17.8848 236.771 17.8848C229.195 17.8848 223.908 23.7 223.908 31.3792Z" fill="white"/>
<path d="M329.153 20.5254C329.029 20.7483 328.754 20.8158 328.54 20.6807C326.068 19.1273 321.527 17.4523 316.855 17.4523C311.724 17.4523 308.41 19.6271 308.41 23.0311C308.41 26.0366 311.13 27.4212 315.67 27.9751L320.012 28.529C327.979 29.596 332.681 32.9595 332.681 39.1731C332.681 46.3322 326.29 50.9657 316.074 50.9657C311.561 50.9657 305.5 49.9053 300.625 46.3864C300.435 46.2513 300.388 45.981 300.509 45.7852L303.034 41.7193C303.168 41.5032 303.46 41.4493 303.669 41.5978C306.43 43.6443 310.12 45.3056 316.113 45.3056C322.27 45.3056 326.054 43.2863 326.054 39.5716C326.054 36.8023 323.609 35.0599 318.519 34.425L314.179 33.9118C305.775 32.8852 301.714 29.0825 301.714 23.3891C301.714 16.1893 307.676 11.833 316.786 11.833C322.526 11.833 327.778 13.3189 331.4 15.6828C331.595 15.8111 331.658 16.0678 331.543 16.2704L329.153 20.5254Z" fill="white"/>
<path d="M362.057 20.5254C361.936 20.7483 361.661 20.8158 361.443 20.6807C358.974 19.1273 354.434 17.4523 349.759 17.4523C344.627 17.4523 341.313 19.6271 341.313 23.0311C341.313 26.0366 344.036 27.4212 348.573 27.9751L352.918 28.529C360.885 29.596 365.588 32.9595 365.588 39.1731C365.588 46.3322 359.194 50.9657 348.978 50.9657C344.468 50.9657 338.404 49.9053 333.528 46.3864C333.341 46.2513 333.294 45.981 333.415 45.7852L335.94 41.7193C336.075 41.5032 336.363 41.4493 336.572 41.5978C339.333 43.6443 343.024 45.3056 349.019 45.3056C355.173 45.3056 358.96 43.2863 358.96 39.5716C358.96 36.8023 356.515 35.0599 351.422 34.425L347.086 33.9118C338.682 32.8852 334.62 29.0825 334.62 23.3891C334.62 16.1893 340.579 11.833 349.693 11.833C355.429 11.833 360.684 13.3189 364.306 15.6828C364.501 15.8111 364.562 16.0678 364.449 16.2704L362.057 20.5254Z" fill="white"/>
<path d="M97.1749 41.0574C97.0066 40.8886 96.7371 40.8886 96.5688 41.0574C91.033 46.3052 83.2005 46.1565 78.0013 40.9425C72.674 35.6 72.6471 27.5698 78.1966 21.9976C83.6449 16.5337 91.4235 16.4864 96.7505 21.5316C96.9257 21.6937 97.1883 21.7004 97.3566 21.5316L101.034 17.8439C101.209 17.6683 101.209 17.3779 101.027 17.2023C92.9995 9.46228 81.3013 9.54332 73.5361 17.3239C65.67 25.2125 65.697 37.1604 73.7314 45.2179C81.6514 53.1604 93.3631 53.3293 101.236 45.7715C101.418 45.6026 101.418 45.3056 101.243 45.1299L97.1749 41.0574Z" fill="white"/>
<path d="M110.866 31.3655C111.102 31.3655 111.291 31.1766 111.297 30.9335C111.513 23.2946 117.157 17.8509 124.504 17.8509C132.04 17.8509 137.724 23.5107 137.724 31.3858C137.724 39.1125 132.256 44.6642 124.935 44.8735C124.699 44.8804 124.504 45.0696 124.504 45.3058V50.5198C124.504 50.7698 124.713 50.9724 124.955 50.9656C136.088 50.7428 144.311 42.3949 144.311 31.3858C144.311 20.2283 135.865 11.7993 124.504 11.7993C113.304 11.7993 104.9 19.9851 104.664 30.9062C104.657 31.1562 104.866 31.3655 105.108 31.3655H110.866Z" fill="white"/>
<path d="M296.211 12.5828H290.661C290.419 12.5828 290.224 12.7786 290.224 13.0218V16.3785C286.811 13.3122 282.265 11.4954 277.131 11.4954C266.007 11.4954 257.602 19.9649 257.602 31.3588C257.602 42.5909 265.764 51.0199 276.661 51.2561C276.911 51.263 277.12 51.0534 277.12 50.8103V45.0425C277.12 44.806 276.93 44.6171 276.688 44.6102C269.071 44.3941 263.643 38.7343 263.643 31.3588C263.643 23.8011 269.287 18.1008 277.139 18.1008C283.833 18.1008 290.232 22.7948 290.232 28.1506V50.8103C290.232 51.0534 290.427 51.2495 290.669 51.2495H296.219C296.461 51.2495 296.656 51.0534 296.656 50.8103V13.015C296.656 12.7854 296.455 12.5828 296.211 12.5828Z" fill="white"/>
<path d="M128.673 35.418L130.552 28.3939C130.956 26.8878 129.582 25.51 128.08 25.9152L121.076 27.7997C119.574 28.2047 119.069 30.0824 120.174 31.1901L125.299 36.3299C126.396 37.4241 128.275 36.9242 128.673 35.418Z" fill="#FDCC01"/>
<path d="M379.838 46.6023C379.838 49.2134 377.726 51.3301 375.122 51.3301C372.518 51.3301 370.408 49.2134 370.408 46.6023C370.408 43.9912 372.518 41.8745 375.122 41.8745C377.726 41.8745 379.838 43.9912 379.838 46.6023Z" fill="white"/>
<path d="M480.433 37.3361C475.874 37.3361 473.778 34.9926 473.778 30.4201V2.28296H459.811V23.1798C456.64 16.3447 449.721 11.6035 441.702 11.6035C433.68 11.6035 426.77 16.338 423.591 23.1798V12.0289H409.799V31.6898C409.799 35.2357 407.94 37.64 404.822 37.64C401.703 37.64 399.844 35.2357 399.844 31.6898V12.0289H385.877V31.8721C385.877 44.0159 393.313 51.6545 404.822 51.6545C414.062 51.6545 420.662 46.5079 422.823 38.1804C425.524 46.0217 432.954 51.6545 441.694 51.6545C450.321 51.6545 457.669 46.1702 460.457 38.4911C462.517 47.4063 469.246 51.3507 478.263 51.3507H481.8V37.3427H480.433V37.3361ZM441.702 37.64C438.402 37.64 435.707 34.9318 435.707 31.629C435.707 28.3194 438.408 25.6179 441.702 25.6179C445.002 25.6179 447.694 28.3263 447.694 31.629C447.694 34.9318 444.994 37.64 441.702 37.64Z" fill="white"/>
</svg>
